<?xml version="1.0" encoding="utf-8"?>
<!-- Generator: Adobe Illustrator 21.0.2, SVG Export Plug-In . SVG Version: 6.00 Build 0)  -->
<svg version="1.1" id="Layer_1" xmlns="http://www.w3.org/2000/svg" xmlns:xlink="http://www.w3.org/1999/xlink" x="0px" y="0px"
	 width="578px" height="167px" viewBox="0 0 578 167" style="enable-background:new 0 0 578 167;" xml:space="preserve">
<style type="text/css">
	.st0{fill:#FFFFFF;}
</style>
<g>
	<path class="st0" d="M192.2,52.4h6.7l8.5,26.3l8.7-26.4h5.3l8.7,26.4l8.5-26.3h6.5l-12.4,35.7h-5.4l-8.7-25.5L210,88.1h-5.4
		L192.2,52.4z"/>
	<path class="st0" d="M267.9,88.4c-2.7,0-5.2-0.5-7.5-1.4c-2.3-1-4.2-2.3-5.8-3.9c-1.6-1.7-2.9-3.6-3.8-5.8
		c-0.9-2.2-1.4-4.6-1.4-7.1v-0.1c0-2.5,0.5-4.9,1.4-7.1c0.9-2.2,2.2-4.2,3.9-5.8c1.7-1.7,3.6-3,5.9-4c2.3-1,4.8-1.5,7.5-1.5
		c2.7,0,5.2,0.5,7.5,1.4c2.3,1,4.2,2.3,5.8,3.9c1.6,1.7,2.9,3.6,3.8,5.8s1.4,4.6,1.4,7.1v0.1c0,2.5-0.5,4.9-1.4,7.1
		c-0.9,2.2-2.2,4.2-3.9,5.8c-1.7,1.7-3.6,3-5.9,4S270.7,88.4,267.9,88.4z M268,82.7c1.7,0,3.4-0.3,4.8-1s2.7-1.6,3.8-2.7
		c1-1.1,1.9-2.5,2.4-4c0.6-1.5,0.9-3.1,0.9-4.9v-0.1c0-1.7-0.3-3.4-0.9-4.9c-0.6-1.5-1.4-2.9-2.5-4c-1.1-1.1-2.3-2-3.8-2.7
		c-1.5-0.7-3.1-1-4.8-1c-1.7,0-3.4,0.3-4.8,1s-2.7,1.6-3.8,2.7c-1,1.1-1.9,2.5-2.4,4c-0.6,1.5-0.9,3.1-0.9,4.9v0.1
		c0,1.7,0.3,3.4,0.9,4.9c0.6,1.5,1.4,2.9,2.5,4c1.1,1.1,2.3,2,3.8,2.7C264.7,82.4,266.3,82.7,268,82.7z"/>
	<path class="st0" d="M296.1,52.4h15.8c2.2,0,4.2,0.3,5.9,0.9c1.7,0.6,3.2,1.5,4.3,2.6c0.9,1,1.7,2.1,2.2,3.4
		c0.5,1.3,0.8,2.7,0.8,4.3v0.1c0,1.5-0.2,2.8-0.6,3.9c-0.4,1.2-1,2.2-1.7,3.1c-0.7,0.9-1.6,1.7-2.7,2.3c-1,0.6-2.2,1.1-3.4,1.4
		l9.6,13.4h-7.3l-8.7-12.4H310h-7.7v12.4h-6.2V52.4z M311.4,69.9c2.2,0,4-0.5,5.3-1.6c1.3-1.1,2-2.5,2-4.3v-0.1
		c0-1.9-0.6-3.4-1.9-4.4c-1.3-1-3.1-1.5-5.4-1.5h-9.1v12H311.4z"/>
	<path class="st0" d="M335.8,52.4h6.2v29.8h18.6v5.6h-24.8V52.4z"/>
	<path class="st0" d="M370.2,52.4h13.2c2.8,0,5.3,0.4,7.6,1.3c2.3,0.9,4.3,2.1,6,3.7c1.7,1.6,3,3.5,3.9,5.6s1.4,4.5,1.4,7v0.1
		c0,2.5-0.5,4.8-1.4,7c-0.9,2.2-2.2,4-3.9,5.6c-1.7,1.6-3.7,2.8-6,3.7c-2.3,0.9-4.9,1.4-7.6,1.4h-13.2V52.4z M383.3,82.2
		c1.9,0,3.5-0.3,5.1-0.9c1.5-0.6,2.8-1.4,3.9-2.5c1.1-1.1,1.9-2.3,2.5-3.8c0.6-1.5,0.9-3.1,0.9-4.8v-0.1c0-1.7-0.3-3.3-0.9-4.8
		c-0.6-1.5-1.4-2.8-2.5-3.8c-1.1-1.1-2.4-1.9-3.9-2.5c-1.5-0.6-3.2-0.9-5.1-0.9h-7v24.2H383.3z"/>
	<path class="st0" d="M409.1,52.4h6.7l8.5,26.3l8.7-26.4h5.3l8.7,26.4l8.5-26.3h6.5l-12.4,35.7h-5.4l-8.7-25.5l-8.7,25.5h-5.4
		L409.1,52.4z"/>
	<path class="st0" d="M472.7,52.4h6.2v35.5h-6.2V52.4z"/>
	<path class="st0" d="M492.5,52.4h13.2c2.8,0,5.3,0.4,7.6,1.3c2.3,0.9,4.3,2.1,6,3.7c1.7,1.6,3,3.5,3.9,5.6c0.9,2.1,1.4,4.5,1.4,7
		v0.1c0,2.5-0.5,4.8-1.4,7c-0.9,2.2-2.2,4-3.9,5.6c-1.7,1.6-3.7,2.8-6,3.7c-2.3,0.9-4.9,1.4-7.6,1.4h-13.2V52.4z M505.7,82.2
		c1.9,0,3.5-0.3,5.1-0.9s2.8-1.4,3.9-2.5c1.1-1.1,1.9-2.3,2.5-3.8c0.6-1.5,0.9-3.1,0.9-4.8v-0.1c0-1.7-0.3-3.3-0.9-4.8
		c-0.6-1.5-1.4-2.8-2.5-3.8c-1.1-1.1-2.4-1.9-3.9-2.5c-1.5-0.6-3.2-0.9-5.1-0.9h-7v24.2H505.7z"/>
	<path class="st0" d="M536.2,52.4h26.2V58h-20.1v9.1h17.8v5.6h-17.8v9.5h20.3v5.6h-26.5V52.4z"/>
</g>
<g>
	<path class="st0" d="M72.8,119.1c0.6-0.1,1.1-0.1,1.7-0.2l2.6-0.3c0.2,0,0.5-0.1,0.7-0.1l5.8-0.4c0.3,0,0.6,0,0.8-0.1
		c-1.4-1.3-2.8-2.7-3.9-4.3c-2.3,0.2-4.6,0.5-6.8,0.9c-0.5,0.1-1,0.2-1.5,0.2c-1,0.2-2,0.3-3,0.5l-6.1,1.4l-1.4,0.4
		c-3.1-8.3-5.2-16.8-6.3-25.3c1.4,0.1,2.9,0.1,4.5,0.1l1.5,0c2.8,0.1,5.8,0.2,8.8,0.2c1.2,0,2.5,0,3.8,0.1c2.4,0,4.8,0.1,7.2,0.1
		l2.2,0c0.1-0.1,0.2-0.2,0.4-0.3c-2.3-1.5-4.6-3.1-6.6-4.8c-1.1,0-2.1,0-3.2,0.1c-1.3,0-2.5,0.1-3.7,0.1c-3.1,0-6,0.1-8.9,0.2
		l-1.4,0c-1.7,0-3.3,0.1-4.9,0.2c-0.8-8.7-0.5-17.4,0.9-26c0,0,0-0.1,0-0.1l4.4,1.3c0.2,0.1,0.3,0.1,0.4,0.1l7,1.6
		c1,0.2,2.1,0.4,3.1,0.5c0.9-1.6,2.2-2.9,3.8-4.1l-3-0.3c-1-0.1-2-0.2-3-0.4l-4.6-0.8l-7.5-1.5c0.5-2.6,1.1-5.1,1.8-7.5
		c0.1-0.4-0.1-0.7-0.4-0.9c-0.3-0.1-0.7,0-0.9,0.3c-0.1,0.1-1.5,2.8-3,7.4c-0.1,0-0.2,0-0.2-0.1c-0.5-0.1-1-0.3-1.5-0.4l-1.7-0.4
		c-0.6-0.1-1.1-0.3-1.5-0.4l-0.9-0.3c-0.7-0.2-1.3-0.4-1.9-0.6c-0.3-0.1-0.6-0.2-0.9-0.3c-0.5-0.2-1-0.3-1.5-0.5
		c-2.8-1.1-4.5-1.7-4.5-1.7c-0.4-0.1-0.7,0-0.9,0.4c-0.2,0.3,0,0.7,0.3,0.9c0,0,1.5,0.9,4.2,2.3c1.1,0.6,2.3,1.1,3.8,1.8l1.2,0.5
		c0.5,0.2,1,0.4,1.6,0.6l2.4,0.9c0.3,0.1,0.7,0.2,1,0.4c-0.3,0.9-0.5,1.9-0.8,2.9c-2,7.9-2.8,16.1-2.3,24.4
		c-4.3,0.2-8.5,0.4-12.9,0.7c-1.1,0.1-2.1,0.1-2.9,0.2l-2.4,0.2c-0.4,0-0.7,0.3-0.7,0.7c0,0.4,0.3,0.7,0.7,0.7l2.3,0.2
		c0.8,0.1,1.8,0.1,2.9,0.2c4.5,0.3,8.8,0.5,13.2,0.7c0.7,7.3,2.4,14.5,5,21.6c0.6,1.7,1.3,3.4,2.1,5.2c-0.8,0.3-1.6,0.6-2.4,0.8
		l-2.2,0.8c-0.5,0.2-1,0.4-1.4,0.6l-1.1,0.5c-1.3,0.6-2.5,1.1-3.5,1.6c-2.4,1.3-3.8,2.1-3.8,2.1c-0.3,0.2-0.5,0.6-0.3,0.9
		c0.2,0.3,0.5,0.5,0.9,0.4c0,0,1.5-0.5,4.1-1.5c0.7-0.3,1.5-0.5,2.4-0.8c0.7-0.2,1.5-0.5,2.3-0.7c0.4-0.1,0.9-0.3,1.4-0.4l1.5-0.4
		c0.5-0.1,0.9-0.2,1.4-0.4c0.6-0.2,1.2-0.3,1.9-0.5l0.1,0c4.5,9.2,10.9,18.9,17.3,25.7c0.1,0.2,0.3,0.2,0.5,0.2
		c0.2,0,0.3-0.1,0.5-0.2c0.3-0.2,0.4-0.7,0.1-1c0-0.1-4.6-6.5-9.7-16.4c-1.6-3.1-3-6.2-4.3-9.3l7-1.3
		C71,119.3,71.9,119.2,72.8,119.1z"/>
	<path class="st0" d="M153.3,89.1l-2.4-0.2c-0.8-0.1-1.7-0.1-2.9-0.2c-4.5-0.3-9-0.5-13.4-0.7c0.5-8.4-0.2-16.8-2.3-24.9
		c-0.1-0.5-0.3-1-0.4-1.5l0.9-0.3c1-0.3,1.9-0.7,2.9-1l2.4-0.9c0.6-0.2,1.1-0.4,1.6-0.6l1.2-0.5c1.5-0.7,2.7-1.2,3.8-1.8
		c2.6-1.4,4.1-2.3,4.1-2.3c0.3-0.2,0.5-0.6,0.3-0.9c-0.2-0.3-0.5-0.5-0.9-0.4c0,0-1.7,0.6-4.5,1.7c-0.8,0.3-1.7,0.6-2.7,0.9
		c-0.8,0.2-1.6,0.5-2.5,0.8c-0.4,0.2-0.9,0.3-1.5,0.4l-1.7,0.4c-0.5,0.1-1,0.3-1.5,0.4c-0.7,0.2-1.4,0.4-2.1,0.5l-0.8,0.2
		c-1.7-5.4-3.3-8.4-3.4-8.6c-0.2-0.3-0.6-0.5-0.9-0.3c-0.3,0.1-0.5,0.5-0.4,0.9c0.8,2.7,1.4,5.6,2,8.6l-0.4,0.1l-8.8,1.6
		c-1,0.1-1.9,0.2-2.9,0.4c-0.6,0.1-1.2,0.1-1.8,0.2l-2,0.2c1.5,1.2,2.8,2.6,3.7,4.2c0.3,0,0.6-0.1,0.9-0.1c1.1-0.2,2.2-0.3,3.3-0.6
		l6.7-1.5l2.1-0.6c1.2,8.3,1.5,16.8,0.7,25.3c-1.4-0.1-2.9-0.1-4.4-0.1l-2-0.1c-2.7-0.1-5.4-0.2-8.2-0.2c-1.2,0-2.5,0-3.8-0.1
		c-0.8,0-2,0.4-2.6,0.9c-1.5,1.2-3.1,2.3-4.6,3.4c-0.3,0.2-0.2,0.8,0.2,0.8c2.4,0,4.7-0.1,7-0.1c1.3,0,2.5-0.1,3.8-0.1
		c2.8,0,5.6-0.1,8.2-0.2l2-0.1c1.4,0,2.7-0.1,4-0.1c-1,8.3-3,16.7-5.9,24.8c0,0.1-0.1,0.1-0.1,0.1l-6.4-1.5
		c-0.9-0.2-1.9-0.3-2.9-0.5c-0.5-0.1-1-0.2-1.6-0.2c-1.7-0.3-3.5-0.5-5.3-0.7c-1.2,1.5-2.5,2.9-4,4.2l5.3,0.4c0.2,0,0.5,0.1,0.7,0.1
		l4.3,0.5c0.9,0.1,1.8,0.2,2.7,0.3l4.1,0.7l1.8,0.4c-0.4,1-0.7,1.9-1.1,2.9c-5.7,13.6-11.5,23-11.6,23.1c-0.2,0.3-0.1,0.7,0.2,1
		c0.1,0.1,0.3,0.2,0.4,0.2c0.2,0,0.4-0.1,0.5-0.2c6.7-7.2,11.9-17.1,15.8-26l1.4,0.3c0.7,0.2,1.3,0.3,1.9,0.5
		c0.5,0.1,0.9,0.2,1.3,0.4l1.5,0.4c0.5,0.1,0.9,0.2,1.4,0.4l0.9,0.3c0.6,0.2,1.2,0.4,1.7,0.5c0.3,0.1,0.6,0.2,0.8,0.3
		c0.5,0.1,0.9,0.3,1.3,0.4c2.6,1,4.1,1.5,4.1,1.5c0.1,0,0.2,0,0.2,0c0.3,0,0.5-0.2,0.7-0.4c0.2-0.3,0-0.7-0.3-0.9
		c0,0-1.3-0.8-3.8-2.1c-1-0.5-2.1-1-3.5-1.6l-1.1-0.5c-0.5-0.2-0.9-0.4-1.4-0.6l-2.2-0.8c-0.8-0.3-1.7-0.6-2.6-0.9l-1.1-0.3
		c0.7-1.8,1.4-3.6,2-5.3c2.6-7,4.2-14,4.9-21.1c4.6-0.2,9.1-0.4,13.7-0.7c1.1-0.1,2.1-0.1,2.9-0.2l2.4-0.2c0.4,0,0.7-0.3,0.7-0.7
		C154,89.4,153.7,89.1,153.3,89.1z"/>
	<path class="st0" d="M92.9,13.2c-40.9,0-74.2,32.3-74.2,71.9S52,157,92.9,157s74.2-32.3,74.2-71.9S133.8,13.2,92.9,13.2z M92.9,154
		c-36.8,0-66.8-30.9-66.8-68.9c0-38,29.9-68.9,66.8-68.9c36.8,0,66.8,30.9,66.8,68.9C159.7,123.1,129.7,154,92.9,154z"/>
</g>
<g>
	<path class="st0" d="M87.8,56.8l-3.5-5L67.1,49c2.2,3.1,3.7,5,7.5,5.6C74.6,54.6,87.8,56.8,87.8,56.8z"/>
	<path class="st0" d="M82.1,48.8c-1.9-2.6-4.6-4.4-7.7-4.9L59,41.4c1.7,3,3.8,5.8,7.2,6.4c0,0,17.1,2.8,17.1,2.8L82.1,48.8z"/>
	<path class="st0" d="M98.4,56.8c0,0,13.3-2.2,13.3-2.2c3.8-0.6,5.3-2.5,7.5-5.6l-17.3,2.8L98.4,56.8z"/>
	<path class="st0" d="M104.1,48.8l-1.3,1.8c0,0,17.1-2.8,17.1-2.8c3.4-0.6,5.6-3.4,7.2-6.4l-15.4,2.5
		C108.7,44.4,106,46.1,104.1,48.8z"/>
	<path class="st0" d="M132.6,34.1c0,0-26.1,4.3-26.2,4.3c-4.1,0.7-7,3.1-8.1,7c0,0.1-1,3.3-2,6.9c0.2-6.6,0.3-10.7,0.3-10.7
		l-1.1-2.9c1.1-0.8,1.9-2.1,1.9-3.6c0-2.4-1.9-4.3-4.1-4.3S89,32.8,89,35.1c0,1.6,0.8,2.9,2,3.7l-1.2,2.8c0,0,0.1,4.1,0.2,10.8
		c-1.1-3.6-2-6.9-2.1-7c-1.1-3.9-4-6.3-8.1-7c-0.1,0-26.2-4.3-26.2-4.3c-0.4,3,3.3,5.5,6.3,6l15.2,2.5c3.1,0.5,5.8,2.2,7.7,4.8
		c0.4,0.6,4.6,6.4,7.3,10.3c0.2,7.9,0.4,18,0.7,28.6c-4.7-3.4-9.2-6.7-11.3-10.4c-2.3-4.2-1.8-10,4-8.3C86,68.3,89,67,88.9,64
		c-0.1-2.5-5.2-4.3-9.9-2c-1.4,0.7-5,2.8-6.3,6.7c-3.3,10.3,6.7,16.9,16,22.9c-5.5,4.3-9.7,9-8.6,14.8c1,5.4,5.9,9.3,10.5,12.9
		c-1.1,1.1-2,2.1-2,2.1c-7,8-3.3,14.1,2.9,18.1c-1.4,0.9-2.8,1.8-4,2.6c-0.9,0.6-0.4,1,0.2,0.8c1.6-0.5,3.3-1.2,4.8-1.9
		c0.2,4.1,0.4,6.5,0.5,6.5c0.1,0,0.3-2.6,0.5-6.9c1.8,0.9,3.7,1.7,5.5,2.3c0.7,0.2,1.2-0.2,0.2-0.8c-1.2-0.8-2.6-1.7-4-2.6
		c6.3-4,9.9-10.1,2.9-18.1c0,0-1-1-2-2.1c4.6-3.6,9.5-7.5,10.5-12.9c1.1-5.8-3.1-10.5-8.6-14.8c9.3-5.9,19.4-12.6,16-22.9
		c-1.3-4-4.8-6-6.3-6.7c-4.6-2.4-9.7-0.6-9.9,2c-0.2,3,2.9,4.3,5.3,3.6c5.7-1.7,6.3,4,4,8.3c-2.2,3.9-7,7.4-12,11
		c0.3-10.8,0.5-21.1,0.7-29.2c2.7-3.9,6.8-9.6,7.3-10.2c1.9-2.6,4.6-4.3,7.7-4.8l15.2-2.5C129.3,39.6,133,37.1,132.6,34.1z
		 M85.5,108.1c-2.4-4.4,0.7-8.1,5.6-11.7c0.2,6.4,0.4,12.7,0.5,18.6C89.4,112.9,86.5,110,85.5,108.1z M91.2,123.6l0.7-0.6
		c0.2,5.5,0.4,10.4,0.5,14.4C88,133.8,85.2,129.3,91.2,123.6z M93.8,138c0.2-4.2,0.4-9.6,0.6-15.6l1.4,1.2
		C102.1,129.7,98.6,134.3,93.8,138z M101.5,108.1c-1.2,2.2-4.6,5.5-6.9,7.6c0.2-6.3,0.4-13.1,0.6-19.9
		C100.5,99.7,103.9,103.5,101.5,108.1z"/>
</g>
<g>
	<path class="st0" d="M213,114.1c-0.9,0.8-1.8,1.5-2.6,1.9c-0.9,0.5-1.9,0.7-3.2,0.7c-0.9,0-1.8-0.2-2.6-0.6
		c-0.8-0.4-1.5-0.9-2.1-1.5c-0.6-0.6-1.1-1.4-1.4-2.3c-0.3-0.9-0.5-1.8-0.5-2.8v-0.1c0-1,0.2-1.9,0.5-2.8c0.3-0.9,0.8-1.6,1.4-2.3
		c0.6-0.6,1.3-1.1,2.1-1.5c0.8-0.4,1.7-0.6,2.6-0.6c1.1,0,2.2,0.2,3.1,0.7c0.9,0.5,1.8,1.1,2.6,1.8l0.1,0.1l2.6-3l-0.1-0.1
		c-0.5-0.5-1-0.9-1.6-1.3c-0.6-0.4-1.2-0.7-1.8-1c-0.7-0.3-1.4-0.5-2.2-0.7s-1.7-0.2-2.6-0.2c-1.6,0-3.1,0.3-4.4,0.9
		c-1.3,0.6-2.5,1.4-3.4,2.3c-1,1-1.7,2.1-2.3,3.5c-0.5,1.3-0.8,2.7-0.8,4.2v0.1c0,1.5,0.3,2.9,0.8,4.2c0.5,1.3,1.3,2.5,2.3,3.4
		c1,1,2.1,1.7,3.4,2.3c1.3,0.6,2.7,0.8,4.3,0.8c1,0,1.9-0.1,2.7-0.3c0.8-0.2,1.6-0.4,2.2-0.8c0.7-0.3,1.3-0.7,1.9-1.2
		c0.6-0.4,1.2-1,1.7-1.5l0.1-0.1l-2.6-2.6L213,114.1z"/>
	<polygon class="st0" points="230.7,99.1 226.7,99.1 226.7,120.1 241.5,120.1 241.5,116.5 230.7,116.5 	"/>
	<rect x="252.8" y="99.1" class="st0" width="4" height="21"/>
	<polygon class="st0" points="284,113 273.2,99.1 269.6,99.1 269.6,120.1 273.6,120.1 273.6,105.8 284.7,120.1 288,120.1 288,99.1 
		284,99.1 	"/>
	<rect x="300.8" y="99.1" class="st0" width="4" height="21"/>
	<path class="st0" d="M333.3,114.1c-0.9,0.8-1.8,1.5-2.6,1.9c-0.9,0.5-1.9,0.7-3.2,0.7c-1,0-1.8-0.2-2.6-0.6
		c-0.8-0.4-1.5-0.9-2.1-1.5c-0.6-0.6-1.1-1.4-1.4-2.3c-0.3-0.9-0.5-1.8-0.5-2.8v-0.1c0-1,0.2-1.9,0.5-2.8c0.3-0.9,0.8-1.6,1.4-2.3
		c0.6-0.6,1.3-1.1,2.1-1.5c0.8-0.4,1.7-0.6,2.6-0.6c1.1,0,2.2,0.2,3.1,0.7c0.9,0.5,1.8,1.1,2.6,1.8l0.1,0.1l2.6-3l-0.1-0.1
		c-0.5-0.5-1-0.9-1.6-1.3c-0.6-0.4-1.2-0.7-1.8-1c-0.7-0.3-1.4-0.5-2.2-0.7c-0.8-0.2-1.7-0.2-2.6-0.2c-1.6,0-3.1,0.3-4.4,0.9
		c-1.3,0.6-2.5,1.4-3.4,2.3c-1,1-1.7,2.1-2.3,3.5c-0.5,1.3-0.8,2.7-0.8,4.2v0.1c0,1.5,0.3,2.9,0.8,4.2c0.5,1.3,1.3,2.5,2.3,3.4
		c1,1,2.1,1.7,3.4,2.3c1.3,0.6,2.7,0.8,4.3,0.8c1,0,1.9-0.1,2.7-0.3c0.8-0.2,1.6-0.4,2.2-0.8c0.7-0.3,1.3-0.7,1.9-1.2
		c0.6-0.4,1.2-1,1.7-1.5l0.1-0.1l-2.6-2.6L333.3,114.1z"/>
	<path class="st0" d="M354.4,99l-9.2,21.2h4.1l2.1-5h9.5l2.1,5h4.3L358,99H354.4z M359.4,111.6h-6.5l3.2-7.6L359.4,111.6z"/>
	<polygon class="st0" points="381.9,99.1 378,99.1 378,120.1 392.8,120.1 392.8,116.5 381.9,116.5 	"/>
	<polygon class="st0" points="418.9,102.9 425.5,102.9 425.5,120.1 429.5,120.1 429.5,102.9 436.1,102.9 436.1,99.1 418.9,99.1 	"/>
	<path class="st0" d="M461.4,111.5c0.6-0.4,1.1-0.8,1.6-1.4c0.4-0.5,0.8-1.2,1-1.9c0.3-0.7,0.4-1.5,0.4-2.4v-0.1
		c0-0.9-0.2-1.8-0.5-2.5c-0.3-0.8-0.7-1.5-1.3-2c-0.7-0.7-1.5-1.2-2.6-1.6c-1-0.4-2.2-0.6-3.5-0.6h-9.4v21h4v-7.2h4.3l5.1,7.2h4.7
		l-5.6-7.9C460.3,112,460.9,111.8,461.4,111.5z M460.4,106L460.4,106c0,1.1-0.4,1.9-1.1,2.4c-0.7,0.6-1.7,0.9-3,0.9h-5.1v-6.6h5.1
		c1.3,0,2.3,0.3,3,0.8C460,104.2,460.4,104.9,460.4,106z"/>
	<rect x="476.4" y="99.1" class="st0" width="4" height="21"/>
	<path class="st0" d="M500.5,99l-9.2,21.2h4.1l2.1-5h9.5l2.1,5h4.3L504.2,99H500.5z M505.6,111.6H499l3.2-7.6L505.6,111.6z"/>
	<polygon class="st0" points="528.1,99.1 524.1,99.1 524.1,120.1 539,120.1 539,116.5 528.1,116.5 	"/>
	<path class="st0" d="M564.6,111.7c-0.3-0.7-0.7-1.2-1.3-1.7c-0.6-0.5-1.3-0.9-2.1-1.3c-0.8-0.3-1.8-0.6-2.9-0.9
		c-1-0.2-1.8-0.5-2.4-0.7c-0.6-0.2-1.1-0.4-1.5-0.7c-0.3-0.2-0.6-0.5-0.7-0.7c-0.1-0.3-0.2-0.6-0.2-1v-0.1c0-0.6,0.3-1.2,0.8-1.6
		c0.6-0.4,1.3-0.7,2.4-0.7c0.9,0,1.8,0.2,2.7,0.5c0.9,0.4,1.8,0.9,2.8,1.6l0.2,0.1l2.2-3l-0.1-0.1c-1.1-0.9-2.2-1.5-3.5-2
		c-1.2-0.4-2.6-0.7-4.1-0.7c-1,0-2,0.2-2.9,0.5c-0.9,0.3-1.6,0.7-2.3,1.3c-0.6,0.5-1.1,1.2-1.5,2c-0.4,0.8-0.5,1.6-0.5,2.5v0.1
		c0,1,0.2,1.8,0.5,2.5c0.3,0.7,0.8,1.3,1.4,1.8c0.6,0.5,1.3,0.9,2.2,1.2c0.9,0.3,1.9,0.6,3,0.9c1,0.2,1.7,0.4,2.3,0.6
		c0.6,0.2,1,0.4,1.4,0.7c0.3,0.2,0.5,0.5,0.6,0.7c0.1,0.3,0.2,0.6,0.2,0.9v0.1c0,0.7-0.3,1.3-0.9,1.7c-0.6,0.4-1.5,0.7-2.6,0.7
		c-1.3,0-2.4-0.2-3.4-0.7c-1-0.5-2-1.1-3-2l-0.1-0.1l-2.4,2.9l0.1,0.1c1.2,1.1,2.6,2,4.1,2.5c1.5,0.5,3,0.8,4.6,0.8
		c1.1,0,2.1-0.1,3-0.4c0.9-0.3,1.7-0.7,2.4-1.2c0.7-0.5,1.2-1.2,1.6-2c0.4-0.8,0.6-1.7,0.6-2.7V114
		C565,113.2,564.9,112.4,564.6,111.7z"/>
</g>
</svg>
